<?xml version="1.0" encoding="utf-8"?>
<!-- Generator: Adobe Illustrator 19.0.0, SVG Export Plug-In . SVG Version: 6.00 Build 0)  -->
<svg version="1.1" xmlns="http://www.w3.org/2000/svg" xmlns:xlink="http://www.w3.org/1999/xlink" x="0px" y="0px"
	 viewBox="0 0 1920 1080" style="enable-background:new 0 0 1920 1080;" xml:space="preserve">
<style type="text/css">
	.st0{fill:#FFFFFF;}
	.st1{fill:none;stroke:#FFFFFF;stroke-miterlimit:10;}
	.st2{fill:#2D283E;}
	.st3{fill:none;}
	.st4{fill:#D1D7E0;}
	.st5{font-family:'Tahoma';}
	.st6{font-size:42px;}
	.st7{fill:#802BB1;}
	.st8{fill:#158171;}
	.st9{fill:#5CBAB7;}
	.st10{opacity:0.2;fill:#FFFFFF;}
	.st11{fill:#086453;}
	.st12{fill:#EF9426;}
	.st13{fill:#E8C98B;}
	.st14{fill:#C66B28;}
	.st15{fill:#155281;}
	.st16{fill:#5C86BA;}
	.st17{fill:#083F64;}
	.st18{fill:#4C495D;}
	.st19{fill:#564F6F;}
	.st20{opacity:0.2;fill:#231F20;}
	.st21{fill:#231F20;}
	.st22{opacity:0.2;fill:#D1D7E0;}
	.st23{fill:#494647;}
	.st24{fill:#606060;}
	.st25{fill:none;stroke:#A8A8A8;stroke-width:2;stroke-miterlimit:10;}
	.st26{fill:#A8A8A8;}
	.st27{fill:#009777;}
	.st28{font-family:'KomikaAxis';}
	.st29{font-size:45.1333px;}
	.st30{fill:#008964;}
	.st31{fill:#663B1E;}
	.st32{opacity:0.2;}
	.st33{fill:#DD9B6F;}
	.st34{fill:#23505B;}
	.st35{fill:none;stroke:#2F6270;stroke-miterlimit:10;}
	.st36{fill:#2F6270;}
	.st37{fill:#EDB188;}
	.st38{fill:none;stroke:#488593;stroke-miterlimit:10;}
	.st39{clip-path:url(#SVGID_2_);fill:#008964;}
	.st40{clip-path:url(#SVGID_2_);fill:#DD9B6F;}
	.st41{fill:#774B2A;}
	.st42{clip-path:url(#SVGID_4_);fill:#231F20;}
	.st43{clip-path:url(#SVGID_6_);fill:#C95B59;}
	.st44{clip-path:url(#SVGID_6_);fill:none;stroke:#506D75;stroke-miterlimit:10;}
	.st45{fill:#EEEAED;}
	.st46{fill:#442C1B;}
	.st47{font-family:'SegoePrint-Bold';}
	.st48{font-size:72px;}
</style>
<g id="Layer_4">
</g>
<g id="BACKGROUND">
	<circle class="st0" cx="855.2" cy="825.5" r="2.1"/>
	<circle class="st0" cx="1077.7" cy="805.5" r="2.1"/>
	<circle class="st0" cx="1106.9" cy="825.5" r="2.1"/>
	<circle class="st0" cx="930.6" cy="803.4" r="2.1"/>
	<circle class="st0" cx="879.7" cy="816" r="2.1"/>
	<circle class="st0" cx="1141.3" cy="808.1" r="4.3"/>
	<g>
		<circle class="st1" cx="1182.9" cy="814.1" r="3.6"/>
		<circle class="st0" cx="1182.9" cy="814.1" r="1.1"/>
		<line class="st1" x1="1189.9" y1="814.1" x2="1175.9" y2="814.1"/>
		<line class="st1" x1="1186.4" y1="808.1" x2="1179.4" y2="820.2"/>
		<line class="st1" x1="1179.4" y1="808.1" x2="1186.4" y2="820.2"/>
	</g>
	<g>
		<circle class="st1" cx="810.2" cy="816" r="5.9"/>
		<circle class="st0" cx="810.2" cy="816" r="1.9"/>
		<line class="st1" x1="821.8" y1="816" x2="798.6" y2="816"/>
		<line class="st1" x1="816" y1="806" x2="804.4" y2="826"/>
		<line class="st1" x1="804.4" y1="806" x2="816" y2="826"/>
	</g>
	<rect x="-11" class="st2" width="1931" height="1080"/>
	<rect x="105.1" y="539.5" class="st3" width="683.9" height="307.9"/>
	<text transform="matrix(1 0 0 1 105.067 571.3835)"><tspan x="0" y="0" class="st4 st5 st6">TaskR boards, lists, and cards </tspan><tspan x="0" y="50.4" class="st4 st5 st6">enable you to organize and prioritize </tspan><tspan x="0" y="100.8" class="st4 st5 st6">your projects in a fun, flexible, and </tspan><tspan x="0" y="151.2" class="st4 st5 st6">rewarding way.</tspan></text>
</g>
<g id="OBJECTS">
	<path class="st7" d="M934.5,728.4c13.7-43.1,60.8-69,57.8-119c-1.4-23-13.4-41.3-21.5-62c-19-48.6-35.1-125.2-5.9-172.9
		c37.4-61.1,124.9-54.3,180.2-82.1c29.9-15.1,54.3-40.6,76.9-66.7c16.4-19,32.5-38.8,52.6-53c41.3-29.2,98-30.4,140.3-2.9
		c43,27.9,70.6,77.2,126.5,66.5c23.2-4.5,46.8-14.1,70.3-7.2c23.3,6.9,44.3,24.6,56.6,47c33.9,61.6-21.4,126.7,1.7,190.3
		c17.3,47.4,67,65.2,94.8,103.5c22.3,30.8,27.6,70.1,20.8,107.8c-13.8,76.1-24.8,157.1-51.2,229.4c-28.9,79.4-115.2,80.2-182.6,80.3
		c-102.4,0.1-208.5,8.7-310-4.6c-79.2-10.4-171.5-35-237.3-86.2C956.8,859.6,913.5,794.3,934.5,728.4z"/>
	<g>
		<g>
			<path class="st8" d="M1063.5,720l-19.1-22.5l-24.2,16.6l0.6,0.7c-4.5-3-9.2-5.4-14.1-7.1l0.9,0l-3.6-30.6l-28.3-1.4l-6.2,30.2
				l0.9,0c-5,1.3-10,3.2-14.7,5.7l0.7-0.7l-22.7-18.9l-20.9,20.5l15.5,26l0.7-0.7c-2.8,4.8-5,9.9-6.6,15.2l0-1l-28.5,3.8l-1.3,30.4
				l28.1,6.6l0-1c1.2,5.4,2.9,10.7,5.3,15.8l-0.6-0.7l-17.6,24.4l19.1,22.5l24.2-16.6l-0.6-0.7c4.5,3,9.2,5.4,14.1,7.1l-0.9,0
				l3.6,30.6l28.3,1.4l6.2-30.2l-0.9,0c5-1.3,10-3.2,14.7-5.7l-0.7,0.7l22.7,18.9l20.9-20.5l-15.5-26l-0.7,0.7
				c2.8-4.8,5-9.9,6.6-15.2l0,1l28.5-3.8l1.3-30.4l-28.1-6.6l0,1c-1.2-5.4-2.9-10.7-5.3-15.8l0.6,0.7L1063.5,720z"/>
			<path class="st9" d="M1028.4,733.9c21.5,25.4,19.8,64.7-3.8,87.8c-23.6,23.1-60.2,21.3-81.7-4.1c-21.5-25.4-19.8-64.7,3.8-87.8
				C970.3,706.7,1006.8,708.5,1028.4,733.9z"/>
			<path class="st10" d="M1015.4,711.7c-2.8-1.5-5.7-2.8-8.7-3.9l0.9,0l-3.6-30.6l-28.3-1.4l-6.2,30.2l0.9,0c-5,1.3-10,3.2-14.7,5.7
				l0.7-0.7l-22.7-18.9l-20.9,20.5l15.5,26l0.7-0.7c-2.8,4.8-5,9.9-6.6,15.2l0-1l-28.5,3.8l-1.3,30.4l28.1,6.6l0-1
				c1.2,5.4,2.9,10.7,5.3,15.8l-0.6-0.7l-17.6,24.4l19.1,22.5l24.2-16.6l-0.6-0.7c1.8,1.2,3.6,2.2,5.4,3.2L1015.4,711.7z"/>
			<path class="st11" d="M1017.7,744.3c16.2,19.1,14.9,48.6-2.8,66c-17.7,17.4-45.2,16-61.4-3c-16.2-19.1-14.9-48.6,2.8-66
				C974.1,723.9,1001.6,725.2,1017.7,744.3z"/>
			<path class="st0" d="M1008,753.9c11.2,13.3,10.4,33.8-2,45.9c-12.3,12.1-31.4,11.1-42.7-2.1c-11.2-13.3-10.4-33.8,2-45.9
				C977.6,739.7,996.7,740.6,1008,753.9z"/>
		</g>
	</g>
	<g>
		<g>
			<path class="st12" d="M971.5,565l-15.6-9.2L944.7,571l0.5,0.3c-3.2-0.8-6.5-1.2-9.8-1.1l0.5-0.2l-7.9-17.4l-17.1,5.4l2.1,19.3
				l0.5-0.2c-2.8,1.9-5.3,4.1-7.6,6.6l0.3-0.5l-17.1-6.3l-8.5,16.8l14.1,12.1l0.3-0.5c-0.7,3.5-1.1,7-1.1,10.5l-0.2-0.6l-16.2,8.5
				l5,18.4l17.9-2.2l-0.2-0.6c1.7,3,3.8,5.7,6.1,8.2L906,647l-5.8,18.4l15.6,9.2l11.2-15.2l-0.5-0.3c3.2,0.8,6.5,1.2,9.8,1.1
				l-0.5,0.2l7.9,17.4l17.1-5.4l-2.1-19.3l-0.5,0.2c2.8-1.9,5.3-4.1,7.6-6.6l-0.3,0.5l17.1,6.3l8.5-16.8L977,624.7l-0.3,0.5
				c0.7-3.5,1.1-7,1.1-10.5l0.2,0.6l16.2-8.5l-5-18.4l-17.9,2.2l0.2,0.6c-1.7-3-3.8-5.7-6.1-8.2l0.5,0.3L971.5,565z"/>
			<path class="st13" d="M953.3,580.9c17.6,10.4,24.1,34.1,14.4,53c-9.6,18.9-31.7,25.9-49.3,15.5c-17.6-10.4-24.1-34.1-14.4-53
				S935.7,570.6,953.3,580.9z"/>
			<path class="st10" d="M941.4,570.6c-2-0.3-4-0.4-5.9-0.4l0.5-0.2l-7.9-17.4l-17.1,5.4l2.1,19.3l0.5-0.2c-2.8,1.9-5.3,4.1-7.6,6.6
				l0.3-0.5l-17.1-6.3l-8.5,16.8l14.1,12.1l0.3-0.5c-0.7,3.5-1.1,7-1.1,10.5l-0.2-0.6l-16.2,8.5l5,18.4l17.9-2.2l-0.2-0.6
				c1.7,3,3.8,5.7,6.1,8.2L906,647l-5.8,18.4l15.6,9.2l11.2-15.2l-0.5-0.3c1.3,0.3,2.5,0.5,3.8,0.7L941.4,570.6z"/>
			<path class="st14" d="M948.9,589.4c13.2,7.8,18.1,25.6,10.8,39.8s-23.8,19.4-37.1,11.7c-13.2-7.8-18.1-25.6-10.8-39.8
				C919.1,586.9,935.7,581.7,948.9,589.4z"/>
			<path class="st0" d="M945,597.3c9.2,5.4,12.6,17.8,7.5,27.7c-5,9.9-16.6,13.5-25.8,8.1c-9.2-5.4-12.6-17.8-7.5-27.7
				C924.2,595.5,935.8,591.9,945,597.3z"/>
		</g>
	</g>
	<g>
		<g>
			<path class="st15" d="M1610.7,594.8l27.5,7.1l-1.9,30.8l-0.9-0.2c4.6,2.8,8.8,6.1,12.6,9.9l-0.5-0.8l26.7-11.4l14.8,26
				l-21.6,20.4l-0.5-0.8c1.4,5.3,2.2,10.9,2.4,16.6l0.2-0.9l26.4,12.2l-6.6,29.6l-28.7-2l0.2-0.9c-2.6,4.9-5.7,9.5-9.2,13.6l0.8-0.5
				l10.6,28.7l-24.1,15.9l-18.9-23.2l0.8-0.5c-5,1.5-10.1,2.4-15.4,2.6l0.9,0.2l-11.4,28.4l-27.5-7.1l1.9-30.8l0.9,0.2
				c-4.6-2.8-8.8-6.1-12.6-9.9l0.5,0.8l-26.7,11.4l-14.8-26l21.6-20.4l0.5,0.8c-1.4-5.3-2.2-10.9-2.4-16.6l-0.2,0.9l-26.4-12.2
				l6.6-29.6l28.7,2l-0.2,0.9c2.6-4.9,5.7-9.5,9.2-13.6l-0.8,0.5l-10.6-28.7l24.1-15.9l18.9,23.2l-0.8,0.5c5-1.5,10.1-2.4,15.4-2.6
				l-0.9-0.2L1610.7,594.8z"/>
			<path class="st16" d="M1616.4,634.6c-31.1-8-62.3,12.5-69.8,45.9c-7.5,33.4,11.6,66.9,42.7,75c31.1,8,62.3-12.5,69.8-45.9
				C1666.5,676.2,1647.4,642.6,1616.4,634.6z"/>
			<path class="st10" d="M1640.7,636.1c2.6,1.9,5.1,4,7.4,6.3l-0.5-0.8l26.7-11.4l14.8,26l-21.6,20.4l-0.5-0.8
				c1.4,5.3,2.2,10.9,2.4,16.6l0.2-0.9l26.4,12.2l-6.6,29.6l-28.7-2l0.2-0.9c-2.6,4.9-5.7,9.5-9.2,13.6l0.8-0.5l10.6,28.7
				l-24.1,15.9l-18.9-23.2l0.8-0.5c-5,1.5-10.1,2.4-15.4,2.6l0.9,0.2l-11.4,28.4l-27.5-7.1l1.9-30.8l0.9,0.2
				c-1.8-1.1-3.5-2.3-5.2-3.5L1640.7,636.1z"/>
			<path class="st17" d="M1613,649.6c-23.3-6-46.8,9.4-52.4,34.5c-5.6,25.1,8.7,50.3,32.1,56.3c23.3,6,46.8-9.4,52.4-34.5
				C1650.7,680.9,1636.3,655.7,1613,649.6z"/>
			<path class="st0" d="M1609.9,663.5c-16.2-4.2-32.5,6.5-36.5,24c-3.9,17.4,6.1,35,22.3,39.2c16.2,4.2,32.5-6.5,36.5-24
				C1636.1,685.2,1626.1,667.7,1609.9,663.5z"/>
		</g>
	</g>
	<g>
		<g>
			<path class="st12" d="M1785.2,779.1l2.9,18.9l-17.1,6.4l-0.1-0.6c-0.4,3.5-1.1,7-2.2,10.3l0.3-0.5l12.7,13.8l-10.4,15.5
				l-16.2-8.5l0.3-0.5c-2.5,2.2-5.3,4-8.3,5.6l0.6-0.1l-0.1,19.4l-17.6,3.1l-5.9-18.3l0.6-0.1c-3.3-0.4-6.5-1.2-9.5-2.4l0.5,0.4
				l-12.9,13.6l-14.5-11.2l7.9-17.5l0.5,0.4c-2-2.7-3.8-5.7-5.2-9l0.1,0.6l-18.1-0.2l-2.9-18.9l17.1-6.4l0.1,0.6
				c0.4-3.5,1.1-7,2.2-10.3l-0.3,0.5l-12.7-13.8l10.4-15.5l16.2,8.5l-0.3,0.5c2.5-2.2,5.3-4,8.3-5.6l-0.6,0.1l0.1-19.4l17.6-3.1
				l5.9,18.3l-0.6,0.1c3.3,0.4,6.5,1.2,9.5,2.4l-0.5-0.4l12.9-13.6l14.5,11.2l-7.9,17.5l-0.5-0.4c2,2.7,3.8,5.7,5.2,9l-0.1-0.6
				L1785.2,779.1z"/>
			<path class="st13" d="M1765.1,792.3c-3.3-21.3-21.9-35.7-41.8-32.2c-19.8,3.5-33.2,23.6-30,44.9c3.3,21.3,21.9,35.7,41.8,32.2
				C1754.9,833.7,1768.4,813.6,1765.1,792.3z"/>
			<path class="st10" d="M1770.2,807.8c-0.4,2.1-0.9,4.2-1.6,6.1l0.3-0.5l12.7,13.8l-10.4,15.5l-16.2-8.5l0.3-0.5
				c-2.5,2.2-5.3,4-8.3,5.6l0.6-0.1l-0.1,19.4l-17.6,3.1l-5.9-18.3l0.6-0.1c-3.3-0.4-6.5-1.2-9.5-2.4l0.5,0.4l-12.9,13.6l-14.5-11.2
				l7.9-17.5l0.5,0.4c-2-2.7-3.8-5.7-5.2-9l0.1,0.6l-18.1-0.2l-2.9-18.9l17.1-6.4l0.1,0.6c0.1-1.4,0.4-2.8,0.6-4.1L1770.2,807.8z"/>
			<path class="st14" d="M1756.2,793.9c-2.4-16-16.5-26.8-31.4-24.2c-14.9,2.6-25,17.7-22.5,33.7c2.4,16,16.5,26.8,31.4,24.2
				C1748.5,825,1758.6,809.9,1756.2,793.9z"/>
			<path class="st0" d="M1748,795.3c-1.7-11.1-11.5-18.7-21.8-16.8c-10.4,1.8-17.4,12.3-15.7,23.5c1.7,11.1,11.5,18.7,21.8,16.8
				C1742.7,817,1749.7,806.5,1748,795.3z"/>
		</g>
	</g>
	<ellipse class="st2" cx="1370" cy="896.2" rx="371.9" ry="20.1"/>
	<path class="st18" d="M1023.4,254l48.8,600.2c1.7,20.7,18.3,36.3,37.6,35.3l378-19.9c20-1.1,35.3-19.4,34.2-40.9l-32.8-604.8
		c-1.2-21.3-18.2-37.6-38-36.4l-394,24.5C1036.9,213.2,1021.6,232.2,1023.4,254z"/>
	<path class="st19" d="M1030.4,259.4l48.8,600.2c1.7,20.7,18.3,36.3,37.6,35.3l378-19.9c20-1.1,35.3-19.4,34.2-40.9l-32.8-604.8
		c-1.2-21.3-18.2-37.6-38-36.4l-394,24.5C1043.9,218.7,1028.6,237.7,1030.4,259.4z"/>
	<polygon class="st20" points="1068.2,247.7 1109.6,837.1 1479.9,821.5 1443.3,237.3 	"/>
	<polygon class="st0" points="1068.2,247.7 1124.1,847.3 1491.1,826.9 1454.1,236.9 	"/>
	<path class="st21" d="M1134.2,202.2l5.8,60.6l233.8-14l-3-68.8c-0.4-8.9-5.7-15.6-11.8-15.1l-214.4,19
		C1138.1,184.5,1133.3,192.9,1134.2,202.2z"/>
	<polygon class="st22" points="1140,262.7 1380,248.8 1377.7,197.9 1127.2,213.5 	"/>
	<path class="st21" d="M1289.1,111.9c-13.7-14.9-36.6-16.3-54.3-10.6c-18.6,6-29.5,24.9-30.3,43.9c-0.7,16.5,6.1,33,22.1,41.1
		c22.2,11.3,53.8,2.2,66.5-20.9C1302,149.1,1302,126,1289.1,111.9z M1264.4,160.6c-7.3,6-17.7,4.1-24.9-1.7c-2-1.6-3.7-3.4-5-5.5
		c-14.1-21.6,22.1-43.8,34.9-22.7C1275.1,140,1272.4,154,1264.4,160.6z"/>
	<path class="st18" d="M1140.4,202.2l5.8,60.6l233.8-14l-3-68.8c-0.4-8.9-5.7-15.6-11.8-15.1l-214.4,19
		C1144.3,184.5,1139.5,192.9,1140.4,202.2z"/>
	<path class="st23" d="M1297.3,111.9c-13.7-14.9-36.6-16.3-54.3-10.6c-18.6,6-29.5,24.9-30.3,43.9c-0.7,16.5,6.1,33,22.1,41.1
		c22.2,11.3,53.8,2.2,66.5-20.9C1310.3,149.1,1310.2,126,1297.3,111.9z M1272.7,160.6c-7.3,6-17.7,4.1-24.9-1.7
		c-2-1.6-3.7-3.4-5-5.5c-14.1-21.6,22.1-43.8,34.9-22.7C1283.3,140,1280.7,154,1272.7,160.6z"/>
	<polygon class="st24" points="1143.7,236.9 1378.9,225.7 1380,248.8 1146.1,262.7 	"/>
	<path class="st25" d="M1135.6,389.1l43-3.4c3.3-0.3,6.2,2.4,6.4,5.9l2.6,36.6c0.3,3.5-2.2,6.6-5.5,6.9l-43,3.8
		c-3.3,0.3-6.2-2.4-6.5-5.9l-2.6-37.1C1129.8,392.4,1132.3,389.3,1135.6,389.1z"/>
	<g>
		<g>
			<path class="st26" d="M1217.2,391.4c48.9-3.8,97.8-7.6,146.7-11.4c6.8-0.5,13.6-1.1,20.4-1.6c3.2-0.2,3.2-5.2,0-5
				c-48.9,3.8-97.8,7.6-146.7,11.4c-6.8,0.5-13.6,1.1-20.4,1.6C1214,386.6,1213.9,391.6,1217.2,391.4L1217.2,391.4z"/>
		</g>
	</g>
	<g>
		<g>
			<path class="st26" d="M1223,426.4c48.9-3.8,97.8-7.6,146.7-11.4c6.8-0.5,13.6-1.1,20.4-1.6c3.2-0.2,3.2-5.2,0-5
				c-48.9,3.8-97.8,7.6-146.7,11.4c-6.8,0.5-13.6,1.1-20.4,1.6C1219.8,421.7,1219.8,426.7,1223,426.4L1223,426.4z"/>
		</g>
	</g>
	<g>
		<g>
			<path class="st27" d="M1127.6,410.9c7.8,6.5,15.7,13.1,23.5,19.6c1.2,1,3.1,1,3.9-0.5c11.8-22.7,23.7-45.5,35.5-68.2
				c1.5-2.9-2.8-5.4-4.3-2.5c-11.8,22.7-23.7,45.5-35.5,68.2c1.3-0.2,2.6-0.3,3.9-0.5c-7.8-6.5-15.7-13.1-23.5-19.6
				C1128.7,405.4,1125.2,408.9,1127.6,410.9L1127.6,410.9z"/>
		</g>
	</g>
	<path class="st25" d="M1148.8,511.4l40.8-4.1c3.1-0.3,6,2,6.5,5.4l5.4,36.2c0.6,3.7-1.9,7.1-5.4,7.5l-42.7,3.8
		c-3.2,0.3-6.1-2.3-6.5-5.7l-3.6-35.8C1143,514.9,1145.5,511.7,1148.8,511.4z"/>
	<g>
		<g>
			<path class="st26" d="M1231.6,512.4c48.9-3.8,97.8-7.6,146.7-11.4c6.8-0.5,13.6-1.1,20.4-1.6c3.2-0.2,3.2-5.2,0-5
				c-48.9,3.8-97.8,7.6-146.7,11.4c-6.8,0.5-13.6,1.1-20.4,1.6C1228.4,507.7,1228.4,512.7,1231.6,512.4L1231.6,512.4z"/>
		</g>
	</g>
	<g>
		<g>
			<path class="st26" d="M1237.4,547.5c48.9-3.8,97.8-7.6,146.7-11.4c6.8-0.5,13.6-1.1,20.4-1.6c3.2-0.2,3.2-5.2,0-5
				c-48.9,3.8-97.8,7.6-146.7,11.4c-6.8,0.5-13.6,1.1-20.4,1.6C1234.2,542.7,1234.2,547.7,1237.4,547.5L1237.4,547.5z"/>
		</g>
	</g>
	<g>
		<g>
			<path class="st27" d="M1142.1,532c7.8,6.5,15.7,13.1,23.5,19.6c1.2,1,3.1,1,3.9-0.5c11.8-22.7,23.7-45.5,35.5-68.2
				c1.5-2.9-2.8-5.4-4.3-2.5c-11.8,22.7-23.7,45.5-35.5,68.2c1.3-0.2,2.6-0.3,3.9-0.5c-7.8-6.5-15.7-13.1-23.5-19.6
				C1143.2,526.4,1139.6,529.9,1142.1,532L1142.1,532z"/>
		</g>
	</g>
	<path class="st25" d="M1163,645.3l43.1-3.4c3.2-0.2,5.9,2.2,6.4,5.5l4.7,36.4c0.5,3.7-2,7-5.5,7.3l-43.5,3.8
		c-3.2,0.3-6-2.2-6.4-5.6l-4.3-36.9C1157,648.8,1159.5,645.5,1163,645.3z"/>
	<g>
		<g>
			<path class="st26" d="M1244.2,647.6c48.9-3.8,97.8-7.6,146.7-11.4c6.8-0.5,13.6-1.1,20.4-1.6c3.2-0.2,3.2-5.2,0-5
				c-48.9,3.8-97.8,7.6-146.7,11.4c-6.8,0.5-13.6,1.1-20.4,1.6C1241,642.9,1241,647.9,1244.2,647.6L1244.2,647.6z"/>
		</g>
	</g>
	<g>
		<g>
			<path class="st26" d="M1250,682.7c48.9-3.8,97.8-7.6,146.7-11.4c6.8-0.5,13.6-1.1,20.4-1.6c3.2-0.2,3.2-5.2,0-5
				c-48.9,3.8-97.8,7.6-146.7,11.4c-6.8,0.5-13.6,1.1-20.4,1.6C1246.8,677.9,1246.8,682.9,1250,682.7L1250,682.7z"/>
		</g>
	</g>
	<g>
		<g>
			<path class="st27" d="M1154.6,667.2c7.8,6.5,15.7,13.1,23.5,19.6c1.2,1,3.1,1,3.9-0.5c11.8-22.7,23.7-45.5,35.5-68.2
				c1.5-2.9-2.8-5.4-4.3-2.5c-11.8,22.7-23.7,45.5-35.5,68.2c1.3-0.2,2.6-0.3,3.9-0.5c-7.8-6.5-15.7-13.1-23.5-19.6
				C1155.7,661.6,1152.2,665.1,1154.6,667.2L1154.6,667.2z"/>
		</g>
	</g>
	<rect x="1151.6" y="288.5" class="st3" width="234.4" height="44.6"/>
	<text transform="matrix(0.9304 0 0 1 1206.7158 320.5659)" class="st24 st28 st29">To do:</text>
	<path class="st20" d="M1503.8,851.3c-1.1,4.1-2.1,8.2-2.8,12.3c-0.2,0.9-0.3,1.7-0.5,2.6c-0.5,2.7-1.1,5.5-2.5,7.7
		c-0.2,0.3-0.4,0.6-0.6,0.8c18.8-2.3,32.9-20,31.8-40.6l-0.5-9.5c-0.1,0-0.1-0.1-0.2-0.1c-1.2-1.1-2.5-2.2-3.8-3.2
		c0.3-0.3,0.4-0.5,0.4-0.5s-12.1-21.2-12.6-22c-10.3-17.3-10.9-17.5-23.8-32.7c-2.5-3-5-5.9-7.5-8.8c0.7-4.8,1.5-9.5,2.3-14.3
		c4.1-20.9,9.7-41.4,14.3-62.2c2.4-10.5,4.7-21.3,6.3-32.1c0,0,0,0,0.1,0l0-0.1c1.1-7.4,1.8-14.9,2-22.4c2.6,0.2,4.1,0.4,4.1,0.4
		l0,0h0c0-0.2,0-0.4,0-0.5c0,0,0,0,0,0c-0.9-23.6-2.1-53.8,1.2-77.2c0.5-3.9,1.2-7.7,1.8-11.6l-4.4-80.5c-2-0.2-4-0.5-6-0.7
		c0-1.3-0.2-2.6-0.8-3.9c-2.1-4.7-5.8-7.8-10.3-9.7c0.5-3.1,1.2-6.3,2-9.3c4-2.8,7.8-6.1,11.2-10c0,0.1,0,0.2,0,0.3
		c0.7-0.1,1.4-0.4,2.1-0.6l-5.2-95.6c-15.1-5.3-32.9-5.3-46.3-2.5c-5.3,1.1-11.2,3.1-15.2,7.3c-0.1,0-0.1,0.1-0.2,0.1l0,0
		c-1.8,2-2.7,4.5-3,7.1c-0.2,2,0,4,0.5,5.9c0.2,0.8,0.5,1.7,0.8,2.4c1.1,2.6,2.7,4.7,4.4,6.5c0,0,0,0.1,0,0.1
		c-2.4,8.7-2.6,18.9-1.7,27.9c0.2,2.2,0.6,4.4,1.3,6.5c0,0.3-0.1,0.7-0.1,1c-0.2,2.9-0.3,5.9-0.2,8.8c0.1,7.4,1,14.7,2.5,21.9
		c0,0,0,0,0,0c0.2,1,0.4,2,0.7,2.9c0.1,0.4,0.2,0.7,0.3,1c0.2,0.6,0.4,1.2,0.6,1.8c0.1,0.4,0.3,0.8,0.4,1.2c0.2,0.5,0.4,0.9,0.6,1.4
		c0.4,0.8,0.8,1.6,1.2,2.4c0.2,0.3,0.4,0.7,0.5,1c0.3,0.5,0.6,0.9,1,1.3c0.2,0.3,0.4,0.5,0.6,0.8c0.4,0.4,0.7,0.8,1.1,1.2
		c0.2,0.2,0.5,0.4,0.7,0.6c1.8,1.6,4,2.9,6.7,3.7c1.4,0.4,2.9,0.7,4.3,0.9c0,0.3,0,0.5-0.1,0.6c-0.1,0.4-0.1,0.9-0.2,1.3
		c-1.9,0.7-3.7,1.6-5.3,2.5c-2.2,1.4-3.8,3.4-4.9,5.7c-4.2-0.3-8.4-0.5-12.6-0.6c-0.5,0-1.1-0.1-1.6-0.1c-0.7,0-1.3,0-1.9,0
		c-2.9,0.1-5.4,0.5-7.5,2.2c-1.5,0.6-2.9,1.5-4.3,2.9c0,0,0,0-0.1,0.1c-3.6,3.5-6.7,7.8-9.8,12.2c-0.8,1.2-1.7,2.4-2.5,3.6
		c-1.1,1.6-2.3,3.2-3.4,4.8c-0.7,1-1.5,2-2.2,2.9c-5.7,7-11.7,13.7-17.8,20.2c-2,2.2-4.1,4.3-6.2,6.5c-5.1,5.4-11.3,10.6-16.1,16.5
		c-1,1.2-1.9,2.5-2.8,3.7c-2.1,3.2-3.5,6.6-3.6,10.6c0,0.8,0,1.6,0.1,2.5c0.3,3.5,1.1,7.1,2.1,10.7c0.3,0.9,0.5,1.8,0.8,2.7
		c1.7,5,3.8,10,6.1,14.8c0.3,0.6,0.6,1.2,0.8,1.7c0.9,1.8,1.7,3.5,2.6,5.2c0.4,0.7,0.7,1.5,1.1,2.2c0.7,1.3,1.3,2.6,2,3.8
		c0.2,0.4,0.5,1,0.9,1.8c0.6,1.2,1.3,2.7,2.3,4.6c1.2,2.4,2.6,5.3,4.1,8.3c1,2,2.1,4.2,3.2,6.3c0.5,1.1,1.1,2.1,1.6,3.2
		c2.8,5.4,5.4,10.6,7.4,14.2c-0.2,1.8-0.1,3.7,0.4,5.5c0.9,3.4,2.9,5.3,5.3,6.6c1.1,0.6,2.3,1,3.5,1.4c-0.3,0.9-0.6,1.8-1,2.7
		c-6.8,18.2-10.7,37.4-16.6,55.8c-1.8,5.7-3.3,11.6-3.9,17.5c-0.9,9.8,0.8,19.4,8.2,27c0.7,0.7,1.4,1.4,2.1,2
		c4.4,3.9,9.5,6.6,14.1,10c0.8,0.6,1.5,1.2,2.3,1.8c4.9,4,9.7,8.1,14.3,12.5c1.5,1.4,3.1,2.9,4.6,4.4c5.6,5.5,10.9,11.3,16.2,17.2
		c0,4.3-0.1,8.6-0.1,12.9c-0.6,25.5-3.9,52.3-7.2,77.4c-7.5,0.5-15,0.9-22.5,1.4h0c-0.5,0-1.1,0.1-1.6,0.1c-1.7,0.1-3.4-0.1-5.2-0.2
		h0c0,0,0,0,0,0c-0.5,0-0.9-0.1-1.4-0.1c-0.1,0-0.2,0-0.3,0c-0.4,0-0.7,0-1.1,0c-0.1,0-0.3,0-0.4,0c-0.5,0-0.9,0-1.4,0.1
		c0,0-0.1,0-0.1,0c-0.4,0-0.8,0.1-1.2,0.2c-0.1,0-0.2,0-0.4,0.1c-0.3,0.1-0.7,0.2-1,0.3c-0.1,0-0.2,0.1-0.3,0.1
		c-0.4,0.1-0.8,0.3-1.2,0.5c-0.1,0.1-0.2,0.1-0.3,0.2c-0.3,0.2-0.6,0.4-0.9,0.6c-0.1,0.1-0.2,0.2-0.3,0.3c-0.4,0.3-0.7,0.7-1,1.1
		c0,0,0,0,0,0c-0.7,0.9-1.2,2-1.6,3.1l72.9-3.8c0-0.3,0-0.6,0-0.9c0.7,0,1.4-0.1,2.1-0.1c1-0.1,3.3-13.3,3.6-14.8
		c0.9-4.8,1.7-9.6,2.3-14.4c1-8.3,1.2-16.6,1.4-24.9c1.7,2.2,3.5,4.5,5.3,6.7c3.1,3.9,6.2,7.7,9.4,11.3c3.2,3.6,6.6,7,10.1,10l0,0
		c0,0,0.1,0,0.2-0.2c0,0,0,0,0,0c0.3-0.3,0.7-0.8,1.3-1.5c0,0.1,0,0.1,0,0.2c0,0.6-0.1,1.2-0.2,1.8
		C1504.1,850.1,1503.9,850.7,1503.8,851.3z M1422.9,513.6c-0.3,20.9-2,41.7-4,62.5c-0.1,0.9-1.3,6.7-2.6,13.4
		c-3.7-7.9-7.3-15.9-11-23.8c-1.9-4.1-3.7-8.2-5.2-12.6c-1.3-3.6-3.6-7.2-3.6-11.2c0-4,2.1-7.1,4.7-9.8c7.3-7.6,14.7-15.1,21.9-22.7
		C1422.9,510.7,1422.9,512.2,1422.9,513.6z M1447.6,705c-0.3,5.8-0.5,11.7-0.7,17.5c-4.6-3.8-9.3-7.4-14.2-10.9
		c-2.3-1.6,4.7-18.7,5.5-21.1c3.3-9.7,7.4-19.1,11.4-28.5C1448.9,676.3,1448.2,690.7,1447.6,705z"/>
	<g>
		<path class="st30" d="M1379.8,514.4c-4,4.9-6.9,10-6.3,16.8c1.3,14.1,9.4,28.8,15.6,41c1.8,3.4,15.1,30.8,20.4,40.1
			c5.4-3.9,10.9-7.9,16.3-11.8c2.2-1.6,4.6-3.4,5.6-6.1c1.4-3.8-0.3-8-2-11.7c-3.8-8.1-7.5-16.3-11.3-24.4
			c-1.9-4.1-3.7-8.2-5.2-12.6c-1.3-3.6-3.6-7.2-3.6-11.2c0-4,2.1-7.1,4.7-9.8c11.1-11.7,22.6-23,33.2-35.2c9-10.3,20.6-24.8,10-38.8
			c-1.6-2.1-3.7-3.7-5.9-5c-4.8-2.9-9.4-2-13.5,1.9c-6.9,6.7-11.9,16-18,23.5c-7.6,9.3-15.7,18.1-24,26.7
			C1390.8,503.3,1384.6,508.5,1379.8,514.4z"/>
		<path class="st20" d="M1395,574c-6.3-12.2-14.3-26.9-15.6-41c-0.6-6.8,2.3-11.9,6.3-16.8c4.9-6,11-11.2,16.1-16.5
			c8.2-8.6,16.4-17.4,24-26.7c6.1-7.5,11.2-16.9,18-23.5c2.4-2.3,5-3.5,7.7-3.6c0,0,0,0,0,0c-4.8-2.9-9.4-2-13.5,1.9
			c-6.9,6.7-11.9,16-18,23.5c-7.6,9.3-15.7,18.1-24,26.7c-5.1,5.4-11.3,10.6-16.1,16.5c-4,4.9-6.9,10-6.3,16.8
			c1.3,14.1,9.4,28.8,15.7,41c1.8,3.4,15.1,30.8,20.4,40.1c1.2-0.9,2.4-1.7,3.5-2.6C1407,598.3,1396.6,577,1395,574z"/>
		<path class="st31" d="M1409.9,883.9c1.8,2.5,5,2.8,7.9,2.9c19.6,0.4,39.2,0.8,58.8,1.2c0.7,0,1.6,0,2.2-0.5c0.7-0.6,1-1.6,1.2-2.5
			c1.3-5.7,1.9-11.7,1.8-17.6c-3.2-3.4-8-3.3-12.3-3.1c-14.2,0.9-28.3,1.7-42.5,2.6c-5.5,0.3-12.3-2.3-16.5,3
			C1407.3,873.8,1407.1,880,1409.9,883.9z"/>
		<path class="st31" d="M1547.8,838.7c1.1-3.4,2.3-7.4,1.7-11.1c-0.8-4.3-4.9-7.8-7.9-10.5c-2.5-2.3-5.1-4.2-7.9-6
			c-1.1-0.7-2.2-1.4-3.4-1.3c-1.1,0.1-2.2,0.9-3.1,1.7c-4.6,4.1-8.9,8.3-11.5,14.5c-0.6,1.4-1.1,2.8-1.3,4.2c-0.3,1.9-0.2,4.1,1,5.7
			c1,1.4,2.2,2.4,2.2,4.5c0,1.2-0.3,2.4-0.6,3.5c-1.1,4.1-2.1,8.2-2.8,12.3c-0.6,3.4-1.1,7.4-2.9,10.3c-1.2,2-3.2,3.2-5.1,4.5
			c-4.5,2.9-8.7,12.4-2.3,15.7c1.8,0.9,3.9,1,5.9,0.9c5.2-0.3,10.5,0.2,15.7-0.2c4-0.3,6.2-3.7,7.9-7.3
			C1539.2,866.9,1543.4,852.7,1547.8,838.7z"/>
		<g class="st32">
			<path class="st21" d="M1432.2,866.9c14.1-0.9,28.3-1.7,42.4-2.6c-1.8-0.2-3.6-0.1-5.3,0c-13.6,0.8-27.3,1.7-40.9,2.5
				C1429.8,866.9,1431,866.9,1432.2,866.9z"/>
			<path class="st21" d="M1423.1,886.7c-2.8-0.1-6.1-0.3-7.9-2.9c-2.8-3.9-2.5-10.1,0.5-14c1.6-2,3.6-2.9,5.8-3.2
				c-4.1-0.3-8.3-0.5-11.2,3.2c-3.1,3.9-3.4,10.1-0.5,14c1.8,2.5,5,2.8,7.9,2.9c19.6,0.4,39.2,0.8,58.8,1.2c0.4,0,0.8,0,1.2-0.1
				C1459.6,887.5,1441.4,887.1,1423.1,886.7z"/>
		</g>
		<g class="st32">
			<path class="st21" d="M1509.1,886.8c-6.4-3.3-2.2-12.8,2.3-15.7c1.9-1.2,3.8-2.5,5.1-4.5c1.9-3,2.3-6.9,2.9-10.3
				c0.7-4.2,1.7-8.3,2.8-12.3c0.3-1.2,0.6-2.3,0.6-3.5c0-2.1-1.2-3.1-2.2-4.5c-1.1-1.6-1.3-3.7-1-5.7c0.3-1.5,0.7-2.9,1.3-4.2
				c2.6-6.3,6.9-10.4,11.5-14.5c0.2-0.2,0.5-0.4,0.7-0.6c-0.9-0.6-2-1.1-3-1.1c-1.1,0.1-2.2,0.9-3.1,1.7c-4.6,4.1-8.9,8.3-11.5,14.5
				c-0.6,1.4-1.1,2.8-1.3,4.2c-0.3,1.9-0.2,4.1,1,5.7c1,1.4,2.2,2.4,2.2,4.5c0,1.2-0.3,2.4-0.6,3.5c-1.1,4.1-2.1,8.2-2.8,12.3
				c-0.6,3.4-1.1,7.4-2.9,10.3c-1.2,2-3.2,3.2-5.1,4.5c-4.5,2.9-8.7,12.4-2.3,15.7c1.8,0.9,3.9,1,5.9,0.9c0.8,0,1.6,0,2.5-0.1
				C1511.1,887.5,1510.1,887.3,1509.1,886.8z"/>
			<path class="st21" d="M1517.5,887.6c1.4,0,2.9,0,4.3,0C1520.4,887.6,1519,887.6,1517.5,887.6z"/>
		</g>
		<path class="st31" d="M1464,388.5c1.3-0.3,2.4-1.3,3.1-3.3c1.4-4.1,2.1-8.4,2.5-12.7c0.9-8.5,3.3-21.1-1.4-28.6
			c-3.8-5.9-10.7-3.3-12.3,3c-2.4,8.7-2.6,18.9-1.7,27.9c0.3,3.3,0.9,6.7,2.6,9.5C1458.3,386.9,1461.5,389.1,1464,388.5z"/>
		<path class="st33" d="M1414.4,622.8c1.1,0.6,2.3,1,3.6,1.4c5.4,1.7,9.4,0.1,13.8-3.8c3.6-3.2,6.5-7.4,7.6-12.3
			c1.1-4.9,0.3-10.3-2.7-14.2c-3-3.9-8.2-5.7-12.6-4c-1.9,0.8-3.6,2.1-5.3,3.5c-4.2,3.5-6.5,6.8-8.8,11.9c-1.5,3.4-2.1,7.3-1.1,10.9
			C1410,619.6,1411.9,621.5,1414.4,622.8z"/>
		<path class="st33" d="M1503.7,459.6c-5.7,1.4-11.7,1.6-17.6,1.4c-3.1-0.1-12.8,0.8-14.1-3c-0.3-1-0.3-2.1-0.2-3.1
			c0.2-3.4,1.6-6.4,2.2-9.7c0.7-3.8,1.6-7.5,2.1-11.3c0.1-0.8,0.7-8.8,1.5-8.9c10.2-1.5,20.3-3.1,30.5-4.6
			C1504.1,432.8,1502.5,446.4,1503.7,459.6z"/>
		<path class="st27" d="M1568.5,463.3c0.7,0.2,1.5,0.4,2.2,0.6c19.5,5.2,39.2,9.5,59,13c8.9,1.6,17.7,2.8,26.7,3.7
			c6.9,0.8,14.6,1.9,19.2,8.2c0.7,0.9,1.2,1.9,1.7,2.9c0.2,0.4,0.4,0.9,0.5,1.4c1.7,4.9,0.3,11.2-3.9,14c-2.4,1.6-5.3,1.8-8.1,1.9
			c-11.1,0.6-22.2,0.4-33.3-0.7c-34.7-3.4-68.8-12.9-102.8-20.4c-4.5-1-9.3-2.2-12.2-6.1c-4.4-6-1.9-14,0.3-20.4
			c0.7-2,1.4-4.1,2.5-5.9c4.6-7.9,15.2-2,21.5-0.1C1550.6,458.3,1559.5,460.9,1568.5,463.3z"/>
		<path class="st20" d="M1674,502.5c-2.4,1.6-5.3,1.8-8.1,1.9c-11.1,0.6-22.2,0.4-33.3-0.7c-34.7-3.4-68.8-12.9-102.8-20.4
			c-4.5-1-9.3-2.2-12.2-6.1c-1.3-1.8-2-3.9-2.3-6c-0.4,3.7-0.1,7.4,2.3,10.5c2.8,3.9,7.7,5.1,12.2,6.1c34.1,7.5,68.1,17,102.8,20.4
			c11.1,1.1,22.2,1.3,33.3,0.7c2.8-0.2,5.7-0.4,8.1-1.9c3.7-2.4,5.2-7.4,4.4-12C1677.9,498.1,1676.4,500.9,1674,502.5z"/>
		<path class="st34" d="M1428.2,593.7c-3.3,11.3-7.1,22.3-11.2,33.2c-6.8,18.2-10.7,37.4-16.6,55.8c-4.8,15.1-7.5,32.3,4.3,44.5
			c5.5,5.7,12.6,8.9,18.5,13.8c6.5,5.4,12.9,10.9,18.9,16.9c12.7,12.6,24.3,26.4,36,40c12.2,14.1,23.7,31.9,37.7,44
			c0.4,0.4,22.3-28.5,22.3-28.5s-12.1-21.2-12.6-22c-10.3-17.3-10.9-17.5-23.8-32.7c-12.2-14.5-24.5-28.9-38.8-41
			c-5.6-4.7-11.3-9.1-17.2-13.3c-2.3-1.6,4.7-18.7,5.5-21.1c8.1-23.9,21.4-46.4,25.7-71.7c1.6-9.3,3.9-17.9-5.6-20.1
			c-13-2.9-26.2-4.5-39.4-4.7c-0.5,0-1,0-1.5,0.3c-0.5,0.4-0.7,1.1-0.9,1.8C1429.1,590.5,1428.6,592.1,1428.2,593.7z"/>
		<path class="st35" d="M1441.3,598.7c-1.3,9-5.3,17.6-10.8,22.3c-4,3.5-8.6,5.1-13,5.1"/>
		<path class="st20" d="M1484,797.9c-11.7-13.6-23.3-27.4-36-40c-6-6-12.4-11.5-18.9-16.9c-6-4.9-13-8.1-18.5-13.8
			c-11.8-12.3-9.1-29.4-4.3-44.5c5.9-18.5,9.8-37.7,16.6-55.8c4.1-10.9,7.9-21.9,11.2-33.2c0.5-1.6,0.9-3.2,1.3-4.8
			c0.2-0.7,0.4-1.4,0.9-1.8c0.1-0.1,0.2-0.1,0.3-0.1c-1.6-0.1-3.2-0.2-4.7-0.2c-0.5,0-1,0-1.5,0.3c-0.5,0.4-0.7,1.1-0.9,1.8
			c-0.4,1.6-0.9,3.2-1.3,4.8c-3.3,11.3-7.1,22.3-11.2,33.2c-6.8,18.2-10.7,37.4-16.6,55.8c-4.8,15.1-7.5,32.3,4.3,44.5
			c5.5,5.7,12.6,8.9,18.5,13.8c6.5,5.4,12.9,10.9,18.9,16.9c12.7,12.6,24.3,26.4,36,40c12.2,14.1,23.7,31.9,37.7,44
			c0.1,0.1,1.1-1.1,2.6-3C1505.9,827,1495.2,810.9,1484,797.9z"/>
		<path class="st36" d="M1460.6,697.7c-0.5,10.7-0.9,21.5-1.3,32.2c-0.7,19.4-1.1,38.7-1.1,58c-0.6,25.5-3.9,52.3-7.2,77.4
			c10.1,3.2,22.4,3.4,32.8,2.7c1-0.1,3.3-13.3,3.6-14.8c0.9-4.8,1.7-9.6,2.3-14.4c1.5-13.1,1.3-26.2,1.6-39.4
			c0.3-11.1,0.7-22.1,1.2-33.2c0.5-10.4,2.4-20.4,4-30.7c4.1-20.9,9.7-41.4,14.3-62.2c5.5-24.7,10.9-50.8,7-76.2
			c-0.3-2.1-0.8-4.3-1.9-6.1c-1-1.5-2.4-2.6-3.8-3.5c-8.3-5.5-17.9-8.6-27.5-8.7c-7-0.1-15.2,2.3-18,9.7c-1.1,2.8-1.2,6-1.3,9
			C1463.8,631,1462.1,664.4,1460.6,697.7z"/>
		<path class="st20" d="M1457.5,865.8c3.3-25.2,6.6-52,7.2-77.4c0-19.4,0.4-38.7,1.1-58c0.4-10.7,0.8-21.5,1.3-32.2
			c1.4-33.4,3.2-66.7,4.5-100.1c0.1-3.1,0.3-6.2,1.3-9c2.4-6.3,8.7-9,14.8-9.6c-1.1-0.1-2.1-0.1-3.2-0.2c-7-0.1-15.2,2.3-18,9.7
			c-1.1,2.8-1.2,6-1.3,9c-1.4,33.4-3.1,66.7-4.5,100.1c-0.5,10.7-0.9,21.5-1.3,32.2c-0.7,19.4-1.1,38.7-1.1,58
			c-0.6,25.5-3.9,52.3-7.2,77.4c8.1,2.6,17.6,3.2,26.4,3C1470.6,868.6,1463.6,867.8,1457.5,865.8z"/>
		<path class="st37" d="M1505.2,329c-8.3-1.6-17.9-1.8-25.3,3.3c-14.4,9.9-22,27.7-24.1,45.5c-1.4,11.7-0.5,23.7,1.8,35.2
			c1.8,9,5.5,17,14.4,19.4c33,9,61.8-27.5,65.4-59.7c1.1-9.7,0.2-20-5.2-28.2C1526,335.2,1515.2,330.9,1505.2,329z"/>
		<path class="st38" d="M1497.9,609.9c-0.1,9.1,2.5,18.3,7.2,24c3.4,4.2,7.7,6.6,12,7.3"/>
		<path class="st20" d="M1461.8,417.4c-2.3-11.5-3.2-23.5-1.8-35.2c2.1-17.8,9.7-35.6,24.1-45.5c7.4-5.1,17-4.9,25.3-3.3
			c7.4,1.4,15.2,4.1,21.2,9.1c-6.3-7.9-16.2-11.7-25.5-13.5c-8.3-1.6-17.9-1.8-25.3,3.3c-14.4,9.9-22,27.7-24.1,45.5
			c-1.4,11.7-0.5,23.7,1.8,35.2c1.4,6.9,3.9,13.2,9,16.8C1464.2,426.4,1462.8,422,1461.8,417.4z"/>
		<g>
			<defs>
				<path id="SVGID_1_" d="M1524.3,541.4c-3.3,23.5-2,54-1.1,77.7c0,0.1-69.1-6.8-77.1-8.1c-0.5-0.1-0.9-0.1-1.4-0.2
					c-6.9-1.2-13.6-2.9-20.5-4.3c-0.1,0,7.5-35.3,7.7-37.7c2-20.8,3.7-41.6,4-62.5c0.2-10.2,0-20.4-0.2-30.6
					c-0.2-9-0.1-19.1,3.8-27.3c2.6-5.4,6.9-5.9,12.1-5.8c23.7,0.6,47.2,4,70.7,6.8c2.6,0.3,5.3,0.6,7.7,1.8
					c7.2,3.5,6.4,12.2,5.7,19.2C1533.5,494.3,1527.6,517.7,1524.3,541.4z"/>
			</defs>
			<use xlink:href="#SVGID_1_"  style="overflow:visible;fill:#009777;"/>
			<clipPath id="SVGID_2_">
				<use xlink:href="#SVGID_1_"  style="overflow:visible;"/>
			</clipPath>
			<path class="st39" d="M1508.5,461.4c4.1-3.9,9.2-10.5,6.5-16.8c-6.9-15.6-32.4-14.4-44.3-7c-7.5,4.6-8.1,16.3-3.8,23.5
				c8,13.6,27.6,10.6,38.4,3C1506.3,463.4,1507.4,462.5,1508.5,461.4z"/>
			<path class="st40" d="M1502.9,457.4c3-2.8,6.8-7.7,4.7-12.3c-5.1-11.4-23.8-10.6-32.5-5.2c-5.5,3.4-5.9,11.9-2.8,17.2
				c5.8,10,20.3,7.8,28.2,2.2C1501.3,458.9,1502.1,458.2,1502.9,457.4z"/>
		</g>
		<path class="st20" d="M1451.8,611c-0.5-0.1-0.9-0.1-1.4-0.2c-6.9-1.2-13.6-2.9-20.5-4.3c-0.1,0,7.5-35.3,7.7-37.7
			c2-20.8,3.7-41.6,4-62.5c0.2-10.2,0-20.4-0.2-30.6c-0.2-9-0.1-19.1,3.8-27.3c1.9-4.1,4.9-5.4,8.4-5.7c-0.7,0-1.4-0.1-2.1-0.1
			c-5.2-0.1-9.5,0.4-12.1,5.8c-3.9,8.2-4,18.3-3.8,27.3c0.2,10.2,0.4,20.4,0.2,30.6c-0.3,20.9-2,41.7-4,62.5
			c-0.2,2.3-7.8,37.7-7.7,37.7c6.8,1.4,13.6,3.1,20.5,4.3c0.5,0.1,0.9,0.2,1.4,0.2c8,1.3,77.1,8.2,77.1,8.1c0-0.2,0-0.4,0-0.5
			C1506.4,616.9,1458.4,612,1451.8,611z"/>
		<path class="st41" d="M1539.5,393.6c-4.1,10.3-11.4,20.3-21.7,22.3c-0.8-7.8,1.7-15.4,3-23c1.4-8.3,3.3-24.6-2.8-31.4
			c-2.3-2.6-6.3-2.4-9.4-3c-4.1-0.8-8.3-1.5-12.5-2.1c-14.3-2.1-37.5,1-44.8-16.2c-2.1-5-2-11.4,1.7-15.5c3.9-4.3,10-6.3,15.3-7.4
			c26.5-5.6,70.3,0,75.9,35.2C1546.6,366.2,1544.5,380.9,1539.5,393.6z"/>
		<path class="st20" d="M1520.8,411c-0.8-7.8,1.7-15.4,3-23c1.4-8.3,3.3-24.6-2.8-31.4c-2.3-2.6-6.3-2.4-9.4-3
			c-4.1-0.8-8.3-1.5-12.5-2.1c-14.3-2.1-37.5,1-44.8-16.2c-1.5-3.4-1.8-7.5-0.8-11c-0.2,0.2-0.4,0.3-0.5,0.5
			c-3.7,4.1-3.8,10.5-1.7,15.5c7.3,17.2,30.5,14.1,44.8,16.2c4.2,0.6,8.3,1.3,12.5,2.1c3,0.6,7.1,0.5,9.4,3
			c6.1,6.8,4.2,23.1,2.8,31.4c-1.3,7.6-3.8,15.2-3,23c8.5-1.6,15-8.7,19.3-17C1533,405,1527.5,409.7,1520.8,411z"/>
		<g>
			<g>
				<defs>
					<polygon id="SVGID_3_" points="1700.3,315.7 1663.8,402 1713.3,409 					"/>
				</defs>
				<use xlink:href="#SVGID_3_"  style="overflow:visible;fill:#EEEAED;"/>
				<clipPath id="SVGID_4_">
					<use xlink:href="#SVGID_3_"  style="overflow:visible;"/>
				</clipPath>
				<path class="st42" d="M1702,353.8c3.1,0.1,6.1-0.4,8.7-1.5c9.2-4,8.2-20.6,7.1-29c-1.3-10-6.9-18.4-15.7-22
					c-2.4-1-5.1-1.4-7.6-0.8c-5.6,1.4-8.5,8.4-11,13.3c-3.1,6-5.1,12.7-5,19.6C1678.7,345.3,1690.9,353.4,1702,353.8z"/>
			</g>
			<polygon class="st12" points="1663,404.3 1602.8,819.8 1653.5,840.7 1713.3,411 			"/>
			<polygon class="st10" points="1617.6,833.9 1680.2,406.6 1663,404.3 1602.8,819.8 			"/>
			<polygon class="st20" points="1637,837.6 1698.4,409 1713.3,411 1653.5,840.7 			"/>
			<g>
				<defs>
					<path id="SVGID_5_" d="M1602.8,819.8l52.3,8.5l-7.9,58.1c-0.7,5.3-5.3,8.9-10.2,8.2l-36.2-5.7c-5-0.8-8.4-5.9-7.6-11.3
						L1602.8,819.8z"/>
				</defs>
				<use xlink:href="#SVGID_5_"  style="overflow:visible;fill:#68838C;"/>
				<clipPath id="SVGID_6_">
					<use xlink:href="#SVGID_5_"  style="overflow:visible;"/>
				</clipPath>
				<polygon class="st43" points="1589.9,861.5 1653.1,871.5 1647.3,900.9 1588.4,892.9 				"/>
				<polyline class="st44" points="1592.3,848.5 1656.6,858.7 1659.4,844.3 1594.9,834.5 				"/>
			</g>
			<ellipse class="st45" cx="1689.4" cy="407.4" rx="9.7" ry="9.6"/>
			<ellipse class="st45" cx="1705.6" cy="409.9" rx="7.6" ry="8.7"/>
			<ellipse class="st45" cx="1671.8" cy="405.5" rx="8.8" ry="8.7"/>
		</g>
		<path class="st37" d="M1528,383.7c6.1,0.1,8.3,7,6.5,12.5c-2.5,7.9-14.4,11.3-21.2,11c-0.7,0-1.4-0.1-1.9-0.6
			c-0.7-0.6-0.9-1.8-0.8-2.8c0.2-3.5,2.1-6.5,4-9.2c1.7-2.4,2.9-5.7,5.2-7.4c2.4-1.8,5-3.5,8-3.5
			C1527.8,383.7,1527.9,383.7,1528,383.7z"/>
		<path class="st33" d="M1693.7,518.4c0.8,0.5,1.7,0.8,2.6,1.1c3.9,1.1,6.4-0.9,8.9-5.1c2-3.5,3.5-8,3.6-12.9s-1.1-10.3-3.6-13.8
			c-2.5-3.5-6.3-4.9-9.1-2.7c-1.2,0.9-2.2,2.5-3.1,4c-2.4,3.8-3.6,7.4-4.5,12.7c-0.6,3.5-0.5,7.4,0.7,10.9
			C1690.3,515.7,1691.9,517.4,1693.7,518.4z"/>
		<ellipse class="st46" cx="1496.3" cy="385.2" rx="3.8" ry="7"/>
		<ellipse class="st46" cx="1468.5" cy="384.2" rx="3.8" ry="7"/>
		<path class="st0" d="M1466.4,406.2c0,0,4.8,2,10.7,2.5c9,0.8,20.5-3.5,20.5-3.5s-2.6,14.9-10.5,17.8c-7.9,2.9-15.5,1.9-18.6-2.2
			C1465.5,417,1466.4,406.2,1466.4,406.2z"/>
		<g>
			<g>
				<path class="st31" d="M1494.1,365.6c4.5,0.7,8.6,2.3,12.3,4.9c0.8,0.6,1.5-0.7,0.8-1.3c-3.8-2.7-8.1-4.4-12.7-5.1
					C1493.6,364,1493.2,365.5,1494.1,365.6L1494.1,365.6z"/>
			</g>
		</g>
		<g>
			<g>
				<path class="st31" d="M1461.6,366.3c3.8-1.3,7.7-1.6,11.7-0.9c0.9,0.2,1.3-1.3,0.4-1.4c-4.3-0.8-8.4-0.5-12.5,0.9
					C1460.3,365.2,1460.7,366.6,1461.6,366.3L1461.6,366.3z"/>
			</g>
		</g>
		<ellipse class="st33" cx="1478" cy="399.4" rx="4.5" ry="2.3"/>
	</g>
	<polygon class="st30" points="1499.6,491.9 1520.4,495.4 1516.6,518.3 1498.6,514.4 	"/>
	<rect x="105.1" y="236.7" class="st3" width="787.5" height="298"/>
	<text transform="matrix(1 0 0 1 105.067 296.1336)"><tspan x="0" y="0" class="st7 st47 st48">TaskR lets you work </tspan><tspan x="0" y="86.4" class="st7 st47 st48">more collaboratively </tspan><tspan x="0" y="172.8" class="st7 st47 st48">and get more done.</tspan></text>
</g>
<g id="DESIGNED_BY_FREEPIK">
</g>
</svg>
